<svg viewBox="0 0 40 40" fill="none" xmlns="http://www.w3.org/2000/svg">
    <rect width="40" height="40" rx="10" fill="url(#g)"/>
    <path d="M12 14C12 12.8954 12.8954 12 14 12H22C23.1046 12 24 12.8954 24 14V20C24 21.1046 23.1046 22 22 22H16L13 25V22H14C12.8954 22 12 21.1046 12 20V14Z" fill="white" opacity="0.9"/>
    <path d="M16 18C16 16.8954 16.8954 16 18 16H26C27.1046 16 28 16.8954 28 18V24C28 25.1046 27.1046 26 26 26H25V29L22 26H18C16.8954 26 16 25.1046 16 24V18Z" fill="white" opacity="0.6"/>
    <defs>
        <linearGradient id="g" x1="0" y1="0" x2="40" y2="40">
            <stop stop-color="#6366F1"/>
            <stop offset="1" stop-color="#8B5CF6"/>
        </linearGradient>
    </defs>
</svg>
